/* XPM */
static char * button_pushed_xpm[] = {
"64 64 5 1",
" 	c #222222",
".	c #483B3A",
"+	c #775C55",
"@	c #9F294E",
"#	c #DA4E38",
"            ....                ............    ....            ",
"            ....                ............    ....            ",
"            ....                ............    ....            ",
"            ....                ............    ....            ",
"    ........................................................++++",
"    ........................................................++++",
"    ........................................................++++",
"    ........................................................++++",
"............................................................++++",
"............................................................++++",
"............................................................++++",
"............................................................++++",
"............................................................++++",
"............................................................++++",
"............................................................++++",
"............................................................++++",
"    ........@@@@################################@@@@........++++",
"    ........@@@@################################@@@@........++++",
"    ........@@@@################################@@@@........++++",
"    ........@@@@################################@@@@........++++",
"........    ########################################    ....++++",
"........    ########################################    ....++++",
"........    ########################################    ....++++",
"........    ########################################    ....++++",
"    ....    ########################################    ........",
"    ....    ########################################    ........",
"    ....    ########################################    ........",
"    ....    ########################################    ........",
"    ....    ########################################    ....++++",
"    ....    ########################################    ....++++",
"    ....    ########################################    ....++++",
"    ....    ########################################    ....++++",
"    ....    ########################################    ........",
"    ....    ########################################    ........",
"    ....    ########################################    ........",
"    ....    ########################################    ........",
"........    ########################################    ....++++",
"........    ########################################    ....++++",
"........    ########################################    ....++++",
"........    ########################################    ....++++",
"........    ########################################    ....++++",
"........    ########################################    ....++++",
"........    ########################################    ....++++",
"........    ########################################    ....++++",
"    ....    ########################################    ........",
"    ....    ########################################    ........",
"    ....    ########################################    ........",
"    ....    ########################################    ........",
"    ....    @@@@################################@@@@    ........",
"    ....    @@@@################################@@@@    ........",
"    ....    @@@@################################@@@@    ........",
"    ....    @@@@################################@@@@    ........",
"    ........                                        ........++++",
"    ........                                        ........++++",
"    ........                                        ........++++",
"    ........                                        ........++++",
"    ........................................................++++",
"    ........................................................++++",
"    ........................................................++++",
"    ........................................................++++",
"++++++++++++........++++....++++++++++++++++....++++++++++++++++",
"++++++++++++........++++....++++++++++++++++....++++++++++++++++",
"++++++++++++........++++....++++++++++++++++....++++++++++++++++",
"++++++++++++........++++....++++++++++++++++....++++++++++++++++"};
