/* XPM */
static char * enemy_f2_xpm[] = {
"64 64 7 1",
" 	c #222222",
".	c #483B3A",
"+	c #775C55",
"@	c #4BA747",
"#	c #97DA3F",
"$	c #AA8D7A",
"%	c #333333",
"            ....                ............    ....            ",
"            ....                ............    ....            ",
"            ....                ............    ....            ",
"            ....                ............    ....            ",
"    ........................................................++++",
"    ........................................................++++",
"    ........................................................++++",
"    ........................................................++++",
"............................................................++++",
"............................................................++++",
"..............................          ....................++++",
"..............................          ....................++++",
"............................  @@@@  ##@@  ..................++++",
"............................  @@@@  ##@@  ..................++++",
"..........................  @@######  ####  ................++++",
"..........................  @@######  ####  ................++++",
"    ......................  @@@@@@##@@####  ................++++",
"    ......................  @@@@@@##@@####  ................++++",
"    ........................  @@@@@@@@@@  ..................++++",
"    ........................  @@@@@@@@@@  ..................++++",
"..............................          ....................++++",
"..............................          ....................++++",
"........................                        ............++++",
"........................                        ............++++",
"    ....................  ++$$++++++++++++++++  ................",
"    ....................  ++$$++++++++++++++++  ................",
"    ..................    ++$$$$      $$$$      ................",
"    ..................    ++$$$$      $$$$      ................",
"    ................  ++  ++$$$$      $$$$        ..........++++",
"    ................  ++  ++$$$$      $$$$        ..........++++",
"    ..............  ++++  ++$$$$++++++$$$$++++++  ..........++++",
"    ..............  ++++  ++$$$$++++++$$$$++++++  ..........++++",
"    ............  ++++$$  ++$$$$$$$$$$$$$$$$$$$$  ..............",
"    ............  ++++$$  ++$$$$$$$$$$$$$$$$$$$$  ..............",
"    ............  ++$$$$  ++++%%$$%%$$%%$$%%$$%%  ..............",
"    ............  ++$$$$  ++++%%$$%%$$%%$$%%$$%%  ..............",
"..............  ++$$$$$$    ++++$$$$$$$$$$$$$$$$  ..........++++",
"..............  ++$$$$$$    ++++$$$$$$$$$$$$$$$$  ..........++++",
"..............  ++++++$$++  ++++++++++++++++++    ..........++++",
"..............  ++++++$$++  ++++++++++++++++++    ..........++++",
"..............  ++$$$$$$$$                        ..........++++",
"..............  ++$$$$$$$$                        ..........++++",
"..............  ++++$$$$$$$$$$$$$$++%%++$$$$$$$$  ..........++++",
"..............  ++++$$$$$$$$$$$$$$++%%++$$$$$$$$  ..........++++",
"    ..........  ++++++$$$$$$$$$$$$$$$$$$$$$$$$$$  ..............",
"    ..........  ++++++$$$$$$$$$$$$$$$$$$$$$$$$$$  ..............",
"    ..........                                    ..............",
"    ..........                                    ..............",
"    ........  %%%%%%%%%%%%%%%%%%%%%%%%%%%%%%%%%%%%  ............",
"    ........  %%%%%%%%%%%%%%%%%%%%%%%%%%%%%%%%%%%%  ............",
"    ........                                        ............",
"    ........                                        ............",
"    ........  %%%%%%%%..%%........................  ........++++",
"    ........  %%%%%%%%..%%........................  ........++++",
"    ........  %%%%%%..............................  ........++++",
"    ........  %%%%%%..............................  ........++++",
"    ........  %%%%%%%%%%..%%......................  ........++++",
"    ........  %%%%%%%%%%..%%......................  ........++++",
"    ..........  %%%%%%%%%%%%%%%%%%%%%%%%%%%%%%%%  ..........++++",
"    ..........  %%%%%%%%%%%%%%%%%%%%%%%%%%%%%%%%  ..........++++",
"++++++++++++........++++....++++++++++++++++....++++++++++++++++",
"++++++++++++........++++....++++++++++++++++....++++++++++++++++",
"++++++++++++........++++....++++++++++++++++....++++++++++++++++",
"++++++++++++........++++....++++++++++++++++....++++++++++++++++"};
