/* XPM */
static char * lizard_idle_f1_xpm[] = {
"64 64 8 1",
" 	c #222222",
".	c #483B3A",
"+	c #775C55",
"@	c #3D734F",
"#	c #314152",
"$	c #4BA747",
"%	c #000000",
"&	c #D3BFA9",
"            ....                ............    ....            ",
"            ....                ............    ....            ",
"            ....                ............    ....            ",
"            ....                ............    ....            ",
"    ........................................................++++",
"    ........................................................++++",
"    ........................................................++++",
"    ........................................................++++",
"............................................................++++",
"............................................................++++",
"............................................................++++",
"............................................................++++",
"............................................................++++",
".................  ........  ...............................++++",
".................  ........  ...............................++++",
".................    ......    .............................++++",
"    .............    ......    .............................++++",
"    .............  @@  ....  @@   ..........................++++",
"    .............  @@  ....  @@   ..........................++++",
"    .............  @@@@  ..  @@@@@  ........................++++",
".................  @@@@  ..  @@@@@  ........................++++",
".................  @@@@@@    #######          ..............++++",
".................  @@@@@@    #######          ..............++++",
"...................  $$$$$$$$$$$$$$$$$$$$$$$$$  ............++++",
"    ...............  $$$$$$$$$$$$$$$$$$$$$$$$$  ................",
"    ...............  $$$$$$$$$$$$$$$$$$$$$$$$$  ................",
"    ...............  $$$$$$$$$$$$$$$$$$$$$$$$$  ................",
"    ...............  $$$$$$%%%%$$$$$%%$$$$$$%%  ................",
"    ...............  $$$$$$%%%%$$$$$%%$$$$$$%%  ............++++",
"    ...............  $$$$$$%%%%$$$$$@@$$$$$$@@  ............++++",
"    ...............  $$$$$$%%%%$$$$$@@$$$$$$@@  ............++++",
"    ...............  $$$$$$@@@@$$$$$$$$$$$$$$$  ............++++",
"    ...............  $$$$$$@@@@$$$$$$$$$$$$$$$  ................",
"    .................  $$$$$$$$$$$$$$$$$$$$$$$  ................",
"    .................  $$$$$$$$$$$$$$$$$$$$$$$  ................",
"    .................  $$$$$$$$$$$@@######      ................",
".....................  $$$$$$$$$$$@@######      ............++++",
".....................  $$$$$$$$$$$&&&&&&  ..................++++",
".....................  $$$$$$$$$$$&&&&&&  ..................++++",
".....................  $$$$$$$$$$$&&&&&&  ..................++++",
".....................  $$$$$$$$&&&&&&&&&  ..................++++",
".....................  $$$$$$$$&&&&&&&&&  ..................++++",
".................      $$$$$$$$&&&&&&&&&  ..................++++",
".................      $$$$$$$$&&&&&&&&&  ..................++++",
"    .............  $$$$.................  ......................",
"    .............  $$$$.................  ......................",
"    ...............    $$+++++++++++++$$  ......................",
"    ...............    $$+++++++++++++$$  ......................",
"    .................  $$$$  +++++  $$$$  ......................",
"    .................  $$$$  +++++  $$$$  ......................",
"    .................      ..           ........................",
"    .................      ..           ........................",
"    ........................................................++++",
"    ........................................................++++",
"    ........................................................++++",
"    ........................................................++++",
"    ........................................................++++",
"    ........................................................++++",
"    ........................................................++++",
"    ........................................................++++",
"++++++++++++........++++....++++++++++++++++....++++++++++++++++",
"++++++++++++........++++....++++++++++++++++....++++++++++++++++",
"++++++++++++........++++....++++++++++++++++....++++++++++++++++",
"++++++++++++........++++....++++++++++++++++....++++++++++++++++"};
