/* XPM */
static char * chest_f2_xpm[] = {
"64 64 11 1",
" 	c #222222",
".	c #483B3A",
"+	c #EE8E2E",
"@	c #62232F",
"#	c #FACB3E",
"$	c #8F4029",
"%	c #C56025",
"&	c #97DA3F",
"*	c #FDF7ED",
"=	c #FFAD3B",
"-	c #72D6CE",
"                                ............                    ",
"                                ............                    ",
"                                ............                    ",
"                                ............                    ",
"        ++++@@@@                                @@@@++++        ",
"        ++++@@@@                                @@@@++++        ",
"        ++++@@@@                                @@@@++++        ",
"        ++++@@@@                                @@@@++++        ",
"    ++++####$$$$++++++++++++++++++++++++++++++++$$$$####++++    ",
"    ++++####$$$$++++++++++++++++++++++++++++++++$$$$####++++    ",
"    ++++####$$$$++++++++++++++++++++++++++++++++$$$$####++++    ",
"    ++++####$$$$++++++++++++++++++++++++++++++++$$$$####++++    ",
"    %%%%++++$$$$%%%%%%%%$$$$@@@@@@@@$$$$%%%%%%%%$$$$++++%%%%    ",
"    %%%%++++$$$$%%%%%%%%$$$$@@@@@@@@$$$$%%%%%%%%$$$$++++%%%%    ",
"    %%%%++++$$$$%%%%%%%%$$$$@@@@@@@@$$$$%%%%%%%%$$$$++++%%%%    ",
"    %%%%++++$$$$%%%%%%%%$$$$@@@@@@@@$$$$%%%%%%%%$$$$++++%%%%    ",
"    ########@@@@########@@@@########@@@@########@@@@########    ",
"    ########@@@@########@@@@########@@@@########@@@@########    ",
"    ########@@@@########@@@@########@@@@########@@@@########    ",
"    ########@@@@########@@@@########@@@@########@@@@########    ",
"        ++++$$$$        @@@@++++####@@@@        $$$$++++        ",
"        ++++$$$$        @@@@++++####@@@@        $$$$++++        ",
"        ++++$$$$        @@@@++++####@@@@        $$$$++++        ",
"        ++++$$$$        @@@@++++####@@@@        $$$$++++        ",
"    %%%%                    @@@@@@@@                    %%%%    ",
"    %%%%                    @@@@@@@@                    %%%%    ",
"    %%%%                    @@@@@@@@                    %%%%    ",
"    %%%%                    @@@@@@@@                    %%%%    ",
"    %%%%        &&&&****========########********        %%%%    ",
"    %%%%        &&&&****========########********        %%%%    ",
"    %%%%        &&&&****========########********        %%%%    ",
"    %%%%        &&&&****========########********        %%%%    ",
"    %%%%    ****&&&&&&&&####********====----****====    %%%%    ",
"    %%%%    ****&&&&&&&&####********====----****====    %%%%    ",
"    %%%%    ****&&&&&&&&####********====----****====    %%%%    ",
"    %%%%    ****&&&&&&&&####********====----****====    %%%%    ",
"    %%%%****########========@@@@@@@@****--------####****%%%%    ",
"    %%%%****########========@@@@@@@@****--------####****%%%%    ",
"    %%%%****########========@@@@@@@@****--------####****%%%%    ",
"    %%%%****########========@@@@@@@@****--------####****%%%%    ",
"    %%%%%%%%%%%%%%%%%%%%%%%%%%%%%%%%%%%%%%%%%%%%%%%%%%%%%%%%    ",
"    %%%%%%%%%%%%%%%%%%%%%%%%%%%%%%%%%%%%%%%%%%%%%%%%%%%%%%%%    ",
"    %%%%%%%%%%%%%%%%%%%%%%%%%%%%%%%%%%%%%%%%%%%%%%%%%%%%%%%%    ",
"    %%%%%%%%%%%%%%%%%%%%%%%%%%%%%%%%%%%%%%%%%%%%%%%%%%%%%%%%    ",
"    @@@@@@@@@@@@@@@@@@@@@@@@@@@@@@@@@@@@@@@@@@@@@@@@@@@@@@@@    ",
"    @@@@@@@@@@@@@@@@@@@@@@@@@@@@@@@@@@@@@@@@@@@@@@@@@@@@@@@@    ",
"    @@@@@@@@@@@@@@@@@@@@@@@@@@@@@@@@@@@@@@@@@@@@@@@@@@@@@@@@    ",
"    @@@@@@@@@@@@@@@@@@@@@@@@@@@@@@@@@@@@@@@@@@@@@@@@@@@@@@@@    ",
"    $$$$$$$$$$$$$$$$$$$$$$$$$$$$$$$$$$$$$$$$$$$$$$$$$$$$$$$$    ",
"    $$$$$$$$$$$$$$$$$$$$$$$$$$$$$$$$$$$$$$$$$$$$$$$$$$$$$$$$    ",
"    $$$$$$$$$$$$$$$$$$$$$$$$$$$$$$$$$$$$$$$$$$$$$$$$$$$$$$$$    ",
"    $$$$$$$$$$$$$$$$$$$$$$$$$$$$$$$$$$$$$$$$$$$$$$$$$$$$$$$$    ",
"    @@@@$$$$$$$$$$$$$$$$$$$$$$$$$$$$$$$$$$$$$$$$$$$$$$$$@@@@    ",
"    @@@@$$$$$$$$$$$$$$$$$$$$$$$$$$$$$$$$$$$$$$$$$$$$$$$$@@@@    ",
"    @@@@$$$$$$$$$$$$$$$$$$$$$$$$$$$$$$$$$$$$$$$$$$$$$$$$@@@@    ",
"    @@@@$$$$$$$$$$$$$$$$$$$$$$$$$$$$$$$$$$$$$$$$$$$$$$$$@@@@    ",
"    @@@@@@@@@@@@@@@@@@@@@@@@@@@@@@@@@@@@@@@@@@@@@@@@@@@@@@@@    ",
"    @@@@@@@@@@@@@@@@@@@@@@@@@@@@@@@@@@@@@@@@@@@@@@@@@@@@@@@@    ",
"    @@@@@@@@@@@@@@@@@@@@@@@@@@@@@@@@@@@@@@@@@@@@@@@@@@@@@@@@    ",
"    @@@@@@@@@@@@@@@@@@@@@@@@@@@@@@@@@@@@@@@@@@@@@@@@@@@@@@@@    ",
"                                                                ",
"                                                                ",
"                                                                ",
"                                                                "};
